HIERARCHY
ROOT Hips
{
 OFFSET 0.000000 0.000000 0.000000
 CHANNELS 6 Xposition Yposition Zposition Yrotation Xrotation Zrotation
 JOINT Chest
 {
  OFFSET 0.000000 9.585900 0.002600
  CHANNELS 3 Yrotation Xrotation Zrotation
  JOINT Chest2
  {
   OFFSET 0.000000 9.601200 -0.005300
   CHANNELS 3 Yrotation Xrotation Zrotation
   JOINT Chest3
   {
    OFFSET 0.000000 9.561800 0.000000
    CHANNELS 3 Yrotation Xrotation Zrotation
    JOINT Chest4
    {
     OFFSET 0.000000 9.552100 0.000000
     CHANNELS 3 Yrotation Xrotation Zrotation
     JOINT Neck
     {
      OFFSET 0.000000 14.453000 0.000000
      CHANNELS 3 Yrotation Xrotation Zrotation
      JOINT Head
      {
       OFFSET 0.000000 8.936500 -0.011300
       CHANNELS 3 Yrotation Xrotation Zrotation
       End Site
       {
        OFFSET 0.000000 17.073600 -0.006000
       }
      }
     }
     JOINT RightCollar
     {
      OFFSET -2.921100 9.558500 0.000000
      CHANNELS 3 Yrotation Xrotation Zrotation
      JOINT RightShoulder
      {
       OFFSET -13.519700 0.000000 0.000000
       CHANNELS 3 Yrotation Xrotation Zrotation
       JOINT RightElbow
       {
        OFFSET 0.000000 -29.696600 0.000000
        CHANNELS 3 Yrotation Xrotation Zrotation
        JOINT RightWrist
        {
         OFFSET 0.000000 -24.004700 0.000000
         CHANNELS 3 Yrotation Xrotation Zrotation
         End Site
         {
          OFFSET 0.000000 -17.728500 0.000000
         }
        }
       }
      }
     }
     JOINT LeftCollar
     {
      OFFSET 2.921100 9.558500 0.000000
      CHANNELS 3 Yrotation Xrotation Zrotation
      JOINT LeftShoulder
      {
       OFFSET 13.519700 0.000000 0.000000
       CHANNELS 3 Yrotation Xrotation Zrotation
       JOINT LeftElbow
       {
        OFFSET 0.000000 -29.696600 0.000000
        CHANNELS 3 Yrotation Xrotation Zrotation
        JOINT LeftWrist
        {
         OFFSET 0.000000 -24.004700 0.000000
         CHANNELS 3 Yrotation Xrotation Zrotation
         End Site
         {
          OFFSET 0.000000 -17.728500 0.000000
         }
        }
       }
      }
     }
    }
   }
  }
 }
 JOINT RightHip
 {
  OFFSET -7.771700 -0.012900 -0.001300
  CHANNELS 3 Yrotation Xrotation Zrotation
  JOINT RightKnee
  {
   OFFSET 0.000000 -40.869800 0.001200
   CHANNELS 3 Yrotation Xrotation Zrotation
   JOINT RightAnkle
   {
    OFFSET 0.000000 -39.717900 0.002100
    CHANNELS 3 Yrotation Xrotation Zrotation
    JOINT RightToe
    {
     OFFSET 0.000000 -4.965400 11.033500
     CHANNELS 3 Yrotation Xrotation Zrotation
     End Site
     {
      OFFSET 0.000000 -1.423100 5.872300
     }
    }
   }
  }
 }
 JOINT LeftHip
 {
  OFFSET 7.771700 -0.012900 -0.001300
  CHANNELS 3 Yrotation Xrotation Zrotation
  JOINT LeftKnee
  {
   OFFSET 0.000000 -40.869800 0.001200
   CHANNELS 3 Yrotation Xrotation Zrotation
   JOINT LeftAnkle
   {
    OFFSET 0.000000 -39.717900 0.002100
    CHANNELS 3 Yrotation Xrotation Zrotation
    JOINT LeftToe
    {
     OFFSET 0.000000 -4.965400 11.033500
     CHANNELS 3 Yrotation Xrotation Zrotation
     End Site
     {
      OFFSET 0.000000 -1.423100 5.872300
     }
    }
   }
  }
 }
}
MOTION
Frames: 9
Frame Time: 0.008333
-130.711692 57.813949 108.219464 176.383829 -30.194601 -0.541099 1.180568 19.776940 2.734503 0.081433 2.443881 0.324001 0.151074 4.018456 0.534760 0.949853 17.038434 2.401794 -0.133767 12.275503 -4.288734 1.489282 -12.783396 -8.129566 5.236041 -1.984318 -1.131943 17.547648 -22.109185 -19.931900 139.712107 -73.783289 -98.929488 15.561664 -15.069577 -35.502817 -7.559046 -1.418811 -3.916667 -2.611329 -14.762016 -0.676142 41.158862 -47.267696 -75.474760 9.592490 -9.083243 17.070312 7.450405 -45.379803 -4.480136 -12.903953 67.446842 -14.749930 8.523134 22.935054 7.204079 -0.267080 -15.760269 1.693098 -4.062703 -42.562471 0.157662 21.933327 66.476792 19.525619 -17.390471 3.142907 -0.792727 0.072919 0.103080 0.019567
-130.712132 57.813308 108.220474 176.384609 -30.208351 -0.533876 1.170848 19.787750 2.724485 0.080768 2.444181 0.323680 0.142882 4.017976 0.534313 0.938500 17.034522 2.400381 -0.167588 12.338357 -4.307898 1.507024 -12.765690 -8.149633 5.251149 -1.977199 -1.137624 17.550830 -22.108570 -19.931435 139.719986 -73.782307 -98.958318 15.528120 -15.061654 -35.459346 -7.559172 -1.408917 -3.928040 -2.590762 -14.756074 -0.677544 41.166040 -47.275233 -75.485414 9.591290 -9.091565 17.089253 7.462720 -45.364818 -4.483886 -12.931093 67.446963 -14.787756 8.524009 22.923875 7.222545 -0.273481 -15.752550 1.690172 -4.085050 -42.546742 0.162267 21.953223 66.472388 19.529084 -17.386705 3.141271 -0.793654 0.070985 0.105692 0.017636
-130.710614 57.812772 108.220930 176.380833 -30.220518 -0.534482 1.162106 19.794274 2.722237 0.086239 2.447618 0.323795 0.135086 4.021672 0.534687 0.908749 17.037195 2.394312 -0.140111 12.346636 -4.319962 1.503058 -12.747347 -8.159478 5.275201 -1.980833 -1.142886 17.543093 -22.107576 -19.932017 139.767817 -73.783490 -99.010059 15.510664 -15.065180 -35.430372 -7.548081 -1.408193 -3.940655 -2.566817 -14.748005 -0.680967 41.175812 -47.290227 -75.512354 9.592103 -9.117354 17.154158 7.471161 -45.351835 -4.477729 -12.943029 67.446405 -14.800748 8.521309 22.915961 7.225874 -0.274292 -15.745984 1.692418 -4.093818 -42.535151 0.171650 21.967049 66.471857 19.539155 -17.390453 3.142924 -0.797478 0.071439 0.103584 0.018673
-130.709682 57.811631 108.221993 176.380840 -30.222890 -0.532884 1.149576 19.796598 2.716434 0.085394 2.448460 0.323902 0.133497 4.027001 0.534799 0.900220 17.041597 2.391081 -0.131718 12.345767 -4.328526 1.499704 -12.735758 -8.170532 5.263601 -1.988342 -1.152375 17.517446 -22.112573 -19.900445 139.817550 -73.769874 -99.030007 15.498092 -15.067189 -35.414905 -7.549068 -1.413274 -3.950025 -2.551279 -14.749992 -0.678934 41.185372 -47.292431 -75.535922 9.601222 -9.153944 17.258458 7.495171 -45.348732 -4.479137 -12.878863 67.455615 -14.749181 8.483682 22.906624 7.239262 -0.265516 -15.739942 1.693960 -4.095457 -42.533932 0.171549 21.954730 66.472563 19.529998 -17.391082 3.149141 -0.798319 0.071597 0.100463 0.017969
-130.707556 57.810720 108.222503 176.375542 -30.225565 -0.535526 1.142736 19.801424 2.718701 0.084218 2.449740 0.323359 0.135177 4.032964 0.534664 0.890939 17.046888 2.388573 -0.150592 12.342338 -4.355368 1.518246 -12.758417 -8.232095 5.269031 -1.999872 -1.159688 17.501090 -22.112714 -19.884325 139.848996 -73.760141 -99.042121 15.453468 -15.036524 -35.423908 -7.539448 -1.424644 -3.956648 -2.556235 -14.749326 -0.681145 41.199735 -47.291150 -75.554239 9.607698 -9.178983 17.344784 7.523435 -45.345834 -4.475382 -12.820942 67.462237 -14.694312 8.444793 22.903834 7.243979 -0.265809 -15.737266 1.701811 -4.108194 -42.533853 0.188860 21.953241 66.477169 19.524866 -17.396219 3.157267 -0.795883 0.075272 0.093670 0.013893
-130.704629 57.810009 108.222715 176.381075 -30.227570 -0.549252 1.125956 19.815187 2.725473 0.092138 2.446179 0.323759 0.131331 4.035035 0.534094 0.882584 17.051866 2.387846 -0.146196 12.324811 -4.373249 1.535231 -12.789560 -8.268892 5.278873 -2.010516 -1.166866 17.476428 -22.112542 -19.866799 139.858237 -73.761842 -99.054051 15.448028 -15.045282 -35.401730 -7.530599 -1.435972 -3.963411 -2.562697 -14.751395 -0.683765 41.199337 -47.265826 -75.572888 9.590673 -9.207359 17.430742 7.586178 -45.341726 -4.492252 -12.880941 67.461611 -14.716602 8.420738 22.909000 7.233934 -0.257581 -15.741553 1.718206 -4.140918 -42.537878 0.212741 21.971532 66.486347 19.535389 -17.385630 3.163129 -0.791339 0.065643 0.090742 0.014399
-130.703495 57.809069 108.223218 176.384098 -30.224609 -0.552956 1.117725 19.816481 2.724577 0.087286 2.449340 0.325307 0.131313 4.037120 0.532685 0.875427 17.056165 2.387501 -0.138988 12.301686 -4.391344 1.558082 -12.830920 -8.307628 5.287758 -2.018868 -1.172807 17.467191 -22.114759 -19.856078 139.825105 -73.795118 -99.055285 15.464150 -15.066852 -35.366112 -7.549913 -1.445707 -3.973035 -2.563514 -14.763979 -0.688508 41.204028 -47.251081 -75.556118 9.587332 -9.222104 17.500607 7.612635 -45.344439 -4.503556 -12.866300 67.464359 -14.691741 8.413017 22.916419 7.232686 -0.246565 -15.749403 1.724184 -4.150249 -42.540075 0.218063 21.969138 66.482036 19.533900 -17.383665 3.168339 -0.794405 0.063662 0.090092 0.014705
-130.703120 57.808075 108.223886 176.387118 -30.218620 -0.554537 1.113159 19.811892 2.723343 0.080791 2.454831 0.323957 0.130435 4.038788 0.533260 0.869127 17.059457 2.386461 -0.129612 12.273889 -4.409543 1.585478 -12.880830 -8.347783 5.291626 -2.026994 -1.177159 17.472612 -22.116929 -19.852128 139.798401 -73.817038 -99.047538 15.430711 -15.044347 -35.368068 -7.551322 -1.455338 -3.979171 -2.571005 -14.770817 -0.691018 41.203205 -47.230170 -75.550082 9.572068 -9.236620 17.543615 7.646084 -45.350087 -4.517610 -12.813678 67.468784 -14.637679 8.390780 22.930879 7.243431 -0.256778 -15.762195 1.732683 -4.154782 -42.544247 0.221259 21.962401 66.477446 19.523626 -17.377377 3.172948 -0.791688 0.052958 0.091446 0.014976
-130.703012 57.807377 108.224113 176.389947 -30.214361 -0.556686 1.102167 19.814172 2.720260 0.075575 2.462688 0.321261 0.137961 4.033195 0.534141 0.865999 17.061871 2.386384 -0.119686 12.241965 -4.428442 1.614521 -12.938324 -8.389797 5.295653 -2.036445 -1.179849 17.451663 -22.113680 -19.831867 139.805817 -73.814818 -99.045653 15.431295 -15.047816 -35.359676 -7.557603 -1.467026 -3.982177 -2.578450 -14.776052 -0.696171 41.196218 -47.211189 -75.534548 9.583757 -9.246015 17.613846 7.678455 -45.356423 -4.527647 -12.802101 67.472061 -14.627593 8.388692 22.953611 7.259662 -0.270541 -15.785010 1.742469 -4.159106 -42.546145 0.223265 21.971184 66.469821 19.534297 -17.384585 3.174203 -0.797828 0.065791 0.098387 0.021110
